<?xml version="1.0" ?><svg viewBox="0 0 60 60" xmlns="http://www.w3.org/2000/svg"><defs><style>.a{fill:#377f60;}.b{fill:#55a344;}.c{fill:#efebcc;}.d{fill:#d34231;}.e{fill:#e54937;}.f{fill:#200300;}</style></defs><title/><circle class="a" cx="30" cy="30" r="30" transform="translate(-12.42641 30) rotate(-45)"/><ellipse class="b" cx="30" cy="30" rx="26" ry="30" transform="translate(-12.42641 30) rotate(-45)"/><ellipse class="a" cx="30" cy="30" rx="22" ry="30" transform="translate(-12.42641 30) rotate(-45)"/><ellipse class="c" cx="30" cy="30" rx="18" ry="30" transform="translate(-12.42641 30) rotate(-45)"/><ellipse class="d" cx="30" cy="30" rx="14" ry="30" transform="translate(-12.42641 30) rotate(-45)"/><path class="e" d="M8.7868,8.7868,51.2132,51.2132c5.4673-5.4673.402-19.397-11.31371-31.1127S14.2541,3.31949,8.7868,8.7868Z"/><path class="f" d="M18.85248,21.80521a.11936.11936,0,0,1,.09478.1772A4.57949,4.57949,0,0,1,17.78537,23.624a1.00933,1.00933,0,1,1-.9433-1.76357A4.57949,4.57949,0,0,1,18.85248,21.80521Z"/><path class="f" d="M18.5764,27.13937a.11936.11936,0,0,1,.1421.1421,4.57949,4.57949,0,0,1-.63588,1.908,1.00933,1.00933,0,1,1-1.41421-1.41421A4.57949,4.57949,0,0,1,18.5764,27.13937Z"/><path class="f" d="M13.90273,21.0981a.11936.11936,0,0,1,.09478.1772,4.57949,4.57949,0,0,1-1.16189,1.64159,1.00933,1.00933,0,1,1-.9433-1.76357A4.57949,4.57949,0,0,1,13.90273,21.0981Z"/><path class="f" d="M21.74271,33.22749a.11936.11936,0,0,1,.07916.18471,4.57949,4.57949,0,0,1-1.299,1.53537,1.00933,1.00933,0,1,1-.78784-1.83829A4.57949,4.57949,0,0,1,21.74271,33.22749Z"/><path class="f" d="M24.50933,27.46206a.11936.11936,0,0,1,.09478.1772,4.57949,4.57949,0,0,1-1.16189,1.64159,1.00933,1.00933,0,1,1-.9433-1.76357A4.57949,4.57949,0,0,1,24.50933,27.46206Z"/><path class="f" d="M28.4759,31.382a.11936.11936,0,0,1,.1421.1421,4.57949,4.57949,0,0,1-.63588,1.908,1.00933,1.00933,0,1,1-1.41421-1.41421A4.57949,4.57949,0,0,1,28.4759,31.382Z"/><path class="f" d="M25.64747,37.03886a.11936.11936,0,0,1,.1421.1421,4.57949,4.57949,0,0,1-.63588,1.908,1.00933,1.00933,0,1,1-1.41421-1.41421A4.57949,4.57949,0,0,1,25.64747,37.03886Z"/><path class="f" d="M32.36074,35.39588a.11936.11936,0,0,1,.1772.09478,4.57949,4.57949,0,0,1-.05522,2.01041,1.00933,1.00933,0,1,1-1.76357-.9433A4.57949,4.57949,0,0,1,32.36074,35.39588Z"/><path class="f" d="M30.83044,41.00656a.11936.11936,0,0,1,.18471.07916,4.57949,4.57949,0,0,1,.11821,2.00769,1.00933,1.00933,0,1,1-1.83829-.78784A4.57949,4.57949,0,0,1,30.83044,41.00656Z"/><path class="f" d="M36.48729,39.59235a.11936.11936,0,0,1,.18471.07916,4.57949,4.57949,0,0,1,.11821,2.00769,1.00933,1.00933,0,1,1-1.83829-.78784A4.57949,4.57949,0,0,1,36.48729,39.59235Z"/><path class="f" d="M41.01987,44.46258a.11936.11936,0,0,1,.19973.02219A4.57949,4.57949,0,0,1,41.915,46.3719a1.00933,1.00933,0,1,1-1.98777-.22086A4.57949,4.57949,0,0,1,41.01987,44.46258Z"/><path class="f" d="M36.54325,43.8558a.11936.11936,0,0,1,.18129.0867,4.57949,4.57949,0,0,1,.03539,2.01086,1.00933,1.00933,0,1,1-1.80427-.86291A4.57949,4.57949,0,0,1,36.54325,43.8558Z"/><path class="f" d="M21.80521,18.85248a.11936.11936,0,0,0,.1772.09478A4.57949,4.57949,0,0,0,23.624,17.78537a1.00933,1.00933,0,1,0-1.76357-.9433A4.57949,4.57949,0,0,0,21.80521,18.85248Z"/><path class="f" d="M27.13937,18.5764a.11936.11936,0,0,0,.1421.1421,4.57949,4.57949,0,0,0,1.908-.63588,1.00933,1.00933,0,1,0-1.41421-1.41421A4.57949,4.57949,0,0,0,27.13937,18.5764Z"/><path class="f" d="M21.0981,13.90273a.11936.11936,0,0,0,.1772.09478,4.57949,4.57949,0,0,0,1.64159-1.16189,1.00933,1.00933,0,1,0-1.76357-.9433A4.57949,4.57949,0,0,0,21.0981,13.90273Z"/><path class="f" d="M33.22749,21.74271a.11936.11936,0,0,0,.18471.07916,4.57949,4.57949,0,0,0,1.53537-1.299,1.00933,1.00933,0,1,0-1.83829-.78784A4.57949,4.57949,0,0,0,33.22749,21.74271Z"/><path class="f" d="M27.46206,24.50933a.11936.11936,0,0,0,.1772.09478,4.57949,4.57949,0,0,0,1.64159-1.16189,1.00933,1.00933,0,1,0-1.76357-.9433A4.57949,4.57949,0,0,0,27.46206,24.50933Z"/><path class="f" d="M31.382,28.4759a.11936.11936,0,0,0,.1421.1421,4.57949,4.57949,0,0,0,1.908-.63588,1.00933,1.00933,0,1,0-1.41421-1.41421A4.57949,4.57949,0,0,0,31.382,28.4759Z"/><path class="f" d="M37.03886,25.64747a.11936.11936,0,0,0,.1421.1421,4.57949,4.57949,0,0,0,1.908-.63588,1.00933,1.00933,0,1,0-1.41421-1.41421A4.57949,4.57949,0,0,0,37.03886,25.64747Z"/><path class="f" d="M35.39588,32.36074a.11936.11936,0,0,0,.09478.1772,4.57949,4.57949,0,0,0,2.01041-.05522,1.00933,1.00933,0,1,0-.9433-1.76357A4.57949,4.57949,0,0,0,35.39588,32.36074Z"/><path class="f" d="M41.00656,30.83044a.11936.11936,0,0,0,.07916.18471,4.57949,4.57949,0,0,0,2.00769.11821,1.00933,1.00933,0,1,0-.78784-1.83829A4.57949,4.57949,0,0,0,41.00656,30.83044Z"/><path class="f" d="M39.59235,36.48729a.11936.11936,0,0,0,.07916.18471,4.57949,4.57949,0,0,0,2.00769.11821,1.00933,1.00933,0,1,0-.78784-1.83829A4.57949,4.57949,0,0,0,39.59235,36.48729Z"/><path class="f" d="M44.46258,41.01987a.11936.11936,0,0,0,.02219.19973,4.57949,4.57949,0,0,0,1.88713.69538,1.00933,1.00933,0,1,0-.22086-1.98777A4.57949,4.57949,0,0,0,44.46258,41.01987Z"/><path class="f" d="M43.8558,36.54325a.11936.11936,0,0,0,.0867.18129,4.57949,4.57949,0,0,0,2.01086.03539,1.00933,1.00933,0,1,0-.86291-1.80427A4.57949,4.57949,0,0,0,43.8558,36.54325Z"/></svg>